<svg width="40" height="40" fill="none" xmlns="http://www.w3.org/2000/svg"><path d="M0 20C0 8.954 8.954 0 20 0s20 8.954 20 20-8.954 20-20 20S0 31.046 0 20z" fill="#F7F7F7"/><path d="M20.009 7.702c4.01 0 4.485.017 6.062.088 1.466.064 2.257.31 2.785.515a4.64 4.64 0 011.723 1.12c.528.527.85 1.025 1.126 1.723.205.527.452 1.324.516 2.783.07 1.583.088 2.058.088 6.06 0 4.003-.018 4.483-.088 6.06-.064 1.465-.31 2.256-.516 2.784a4.64 4.64 0 01-1.12 1.723 4.703 4.703 0 01-1.723 1.125c-.528.205-1.325.451-2.785.516-1.583.07-2.058.088-6.062.088-4.005 0-4.485-.018-6.063-.088-1.465-.065-2.257-.31-2.784-.516a4.64 4.64 0 01-1.724-1.12 4.702 4.702 0 01-1.126-1.722c-.205-.528-.451-1.325-.516-2.784-.07-1.582-.088-2.057-.088-6.06s.018-4.483.088-6.06c.065-1.465.311-2.256.516-2.784a4.64 4.64 0 011.12-1.722 4.703 4.703 0 011.724-1.126c.527-.205 1.325-.45 2.785-.515 1.577-.07 2.052-.088 6.062-.088zm0-2.702c-4.075 0-4.585.018-6.186.088-1.594.07-2.69.328-3.64.697-.991.387-1.83.897-2.662 1.735a7.351 7.351 0 00-1.735 2.655c-.37.955-.628 2.045-.698 3.64C5.018 15.42 5 15.93 5 20.002c0 4.073.018 4.583.088 6.183.07 1.594.328 2.69.698 3.64.387.99.897 1.828 1.735 2.66a7.336 7.336 0 002.656 1.729c.956.369 2.046.627 3.64.697 1.601.07 2.111.088 6.186.088 4.075 0 4.585-.018 6.185-.088 1.595-.07 2.691-.328 3.641-.697a7.337 7.337 0 002.656-1.73 7.333 7.333 0 001.73-2.654c.369-.955.627-2.045.697-3.64.07-1.6.088-2.11.088-6.182 0-4.073-.018-4.583-.088-6.183-.07-1.594-.328-2.69-.698-3.64a7.027 7.027 0 00-1.717-2.666 7.336 7.336 0 00-2.656-1.729c-.956-.369-2.046-.627-3.641-.697C24.593 5.018 24.083 5 20.009 5z" fill="#134731"/><path d="M20.009 12.296a7.71 7.71 0 00-7.71 7.707 7.71 7.71 0 0015.42 0 7.71 7.71 0 00-7.71-7.707zm0 12.706a5 5 0 01-5.001-4.999 5 5 0 0110.002 0 5 5 0 01-5.001 4.999zm9.814-13.01a1.8 1.8 0 11-3.599-.001 1.8 1.8 0 013.6 0z" fill="#134731"/></svg>