<svg width="40" height="40" fill="none" xmlns="http://www.w3.org/2000/svg"><path d="M0 20C0 8.954 8.954 0 20 0s20 8.954 20 20-8.954 20-20 20S0 31.046 0 20z" fill="#F7F7F7"/><path d="M20.81 7.951c-7.05 0-10.605 5.055-10.605 9.27 0 2.555.969 4.824 3.039 5.669.341.14.645.006.744-.369.068-.261.23-.921.303-1.195.101-.369.061-.5-.211-.825-.599-.704-.98-1.62-.98-2.911 0-3.75 2.805-7.106 7.306-7.106 3.986 0 6.177 2.438 6.177 5.686 0 4.28-1.895 7.89-4.707 7.89-1.553 0-2.715-1.284-2.341-2.859.446-1.884 1.31-3.911 1.31-5.266 0-1.215-.654-2.226-2-2.226-1.586 0-2.864 1.64-2.864 3.84 0 1.4.476 2.348.476 2.348l-1.91 8.087c-.566 2.4-.085 5.343-.04 5.64.02.175.248.22.35.086.146-.191 2.038-2.529 2.678-4.859.185-.66 1.045-4.075 1.045-4.075.519.981 2.021 1.846 3.625 1.846 4.771 0 8.006-4.346 8.006-10.17-.005-4.4-3.733-8.5-9.4-8.5h-.001z" fill="#134731"/></svg>